HIERARCHY
ROOT hip
{
  OFFSET 0 0 0
  CHANNELS 6 Xposition Yposition Zposition Zrotation Yrotation Xrotation
  JOINT abdomen
  {
    OFFSET 0 20.6881 -0.73152
    CHANNELS 3 Zrotation Xrotation Yrotation
    JOINT chest
    {
      OFFSET 0 11.7043 -0.48768
      CHANNELS 3 Zrotation Xrotation Yrotation
      JOINT neck
      {
        OFFSET 0 22.1894 -2.19456
        CHANNELS 3 Zrotation Xrotation Yrotation
        JOINT head
        {
          OFFSET -0.24384 7.07133 1.2192
          CHANNELS 3 Zrotation Xrotation Yrotation
          JOINT leftEye
          {
            OFFSET 4.14528 8.04674 8.04672
            CHANNELS 3 Zrotation Xrotation Yrotation
            End Site
            {
              OFFSET 1 0 0
            }
          }
          JOINT rightEye
          {
            OFFSET -3.6576 8.04674 8.04672
            CHANNELS 3 Zrotation Xrotation Yrotation
            End Site
            {
              OFFSET 1 0 0
            }
          }
        }
      }
      JOINT rCollar
      {
        OFFSET -2.68224 19.2634 -4.8768
        CHANNELS 3 Zrotation Xrotation Yrotation
        JOINT rShldr
        {
          OFFSET -8.77824 -1.95073 1.46304
          CHANNELS 3 Zrotation Xrotation Yrotation
          JOINT rForeArm
          {
            OFFSET -28.1742 -1.7115 0.48768
            CHANNELS 3 Zrotation Xrotation Yrotation
            JOINT rHand
            {
              OFFSET -22.5879 0.773209 7.07136
              CHANNELS 3 Zrotation Xrotation Yrotation
              JOINT rThumb1
              {
                OFFSET -1.2192 -0.487915 3.41376
                CHANNELS 3 Zrotation Xrotation Yrotation
                JOINT rThumb2
                {
                  OFFSET -3.37035 -0.52449 3.41376
                  CHANNELS 3 Zrotation Xrotation Yrotation
                  End Site
                  {
                    OFFSET -1.78271 -1.18214 1.43049
                  }
                }
              }
              JOINT rIndex1
              {
                OFFSET -7.75947 0.938293 5.60832
                CHANNELS 3 Zrotation Xrotation Yrotation
                JOINT rIndex2
                {
                  OFFSET -2.54057 -0.884171 1.56538
                  CHANNELS 3 Zrotation Xrotation Yrotation
                  End Site
                  {
                    OFFSET -1.62519 -0.234802 1.16502
                  }
                }
              }
              JOINT rMid1
              {
                OFFSET -8.24714 1.18213 3.41376
                CHANNELS 3 Zrotation Xrotation Yrotation
                JOINT rMid2
                {
                  OFFSET -3.10165 -0.590103 1.0647
                  CHANNELS 3 Zrotation Xrotation Yrotation
                  End Site
                  {
                    OFFSET -2.48547 -0.328903 0.83742
                  }
                }
              }
              JOINT rRing1
              {
                OFFSET -8.82822 0.546677 1.51678
                CHANNELS 3 Zrotation Xrotation Yrotation
                JOINT rRing2
                {
                  OFFSET -2.60934 -0.819778 -0.0198488
                  CHANNELS 3 Zrotation Xrotation Yrotation
                  End Site
                  {
                    OFFSET -2.33842 -0.294052 0.168128
                  }
                }
              }
              JOINT rPinky1
              {
                OFFSET -8.27202 -0.0477905 -0.4584
                CHANNELS 3 Zrotation Xrotation Yrotation
                JOINT rPinky2
                {
                  OFFSET -1.82734 -0.647385 -0.700984
                  CHANNELS 3 Zrotation Xrotation Yrotation
                  End Site
                  {
                    OFFSET -1.69225 -0.51767 -0.607171
                  }
                }
              }
            }
          }
        }
      }
      JOINT lCollar
      {
        OFFSET 2.68224 19.2634 -4.8768
        CHANNELS 3 Zrotation Xrotation Yrotation
        JOINT lShldr
        {
          OFFSET 8.77824 -1.95073 1.46304
          CHANNELS 3 Zrotation Xrotation Yrotation
          JOINT lForeArm
          {
            OFFSET 28.1742 -1.7115 0.48768
            CHANNELS 3 Zrotation Xrotation Yrotation
            JOINT lHand
            {
              OFFSET 22.5879 0.773209 7.07136
              CHANNELS 3 Zrotation Xrotation Yrotation
              JOINT lThumb1
              {
                OFFSET 1.2192 -0.487915 3.41376
                CHANNELS 3 Zrotation Xrotation Yrotation
                JOINT lThumb2
                {
                  OFFSET 3.37035 -0.52449 3.41376
                  CHANNELS 3 Zrotation Xrotation Yrotation
                  End Site
                  {
                    OFFSET 1.78271 -1.18214 1.43049
                  }
                }
              }
              JOINT lIndex1
              {
                OFFSET 7.75947 0.938293 5.60832
                CHANNELS 3 Zrotation Xrotation Yrotation
                JOINT lIndex2
                {
                  OFFSET 2.54057 -0.884171 1.56538
                  CHANNELS 3 Zrotation Xrotation Yrotation
                  End Site
                  {
                    OFFSET 1.62519 -0.234802 1.16502
                  }
                }
              }
              JOINT lMid1
              {
                OFFSET 8.24714 1.18213 3.41376
                CHANNELS 3 Zrotation Xrotation Yrotation
                JOINT lMid2
                {
                  OFFSET 3.10165 -0.590103 1.0647
                  CHANNELS 3 Zrotation Xrotation Yrotation
                  End Site
                  {
                    OFFSET 2.48547 -0.328903 0.83742
                  }
                }
              }
              JOINT lRing1
              {
                OFFSET 8.82822 0.546677 1.51678
                CHANNELS 3 Zrotation Xrotation Yrotation
                JOINT lRing2
                {
                  OFFSET 2.60934 -0.819778 -0.0198488
                  CHANNELS 3 Zrotation Xrotation Yrotation
                  End Site
                  {
                    OFFSET 2.33842 -0.294052 0.168128
                  }
                }
              }
              JOINT lPinky1
              {
                OFFSET 8.27202 -0.0477905 -0.4584
                CHANNELS 3 Zrotation Xrotation Yrotation
                JOINT lPinky2
                {
                  OFFSET 1.82734 -0.647385 -0.700984
                  CHANNELS 3 Zrotation Xrotation Yrotation
                  End Site
                  {
                    OFFSET 1.69225 -0.51767 -0.607171
                  }
                }
              }
            }
          }
        }
      }
    }
  }
  JOINT rButtock
  {
    OFFSET -8.77824 4.35084 1.2192
    CHANNELS 3 Zrotation Xrotation Yrotation
    JOINT rThigh
    {
      OFFSET 0 -1.70687 -2.19456
      CHANNELS 3 Zrotation Xrotation Yrotation
      JOINT rShin
      {
        OFFSET 0 -36.8199 0.73152
        CHANNELS 3 Zrotation Xrotation Yrotation
        JOINT rFoot
        {
          OFFSET 0.73152 -45.1104 -5.12064
          CHANNELS 3 Zrotation Xrotation Yrotation
          End Site
          {
            OFFSET -1.1221 -3.69964 12.103
          }
        }
      }
    }
  }
  JOINT lButtock
  {
    OFFSET 8.77824 4.35084 1.2192
    CHANNELS 3 Zrotation Xrotation Yrotation
    JOINT lThigh
    {
      OFFSET 0 -1.70687 -2.19456
      CHANNELS 3 Zrotation Xrotation Yrotation
      JOINT lShin
      {
        OFFSET 0 -36.8199 0.73152
        CHANNELS 3 Zrotation Xrotation Yrotation
        JOINT lFoot
        {
          OFFSET -0.73152 -45.1104 -5.12064
          CHANNELS 3 Zrotation Xrotation Yrotation
          End Site
          {
            OFFSET 1.1221 -3.69964 12.103
          }
        }
      }
    }
  }
}
MOTION
Frames:	6
Frame Time:	0.03333
-0.5241000093519688 91.79139733314514 -1.1610000394284725 81.24800109863281 45.57279968261719 86.99600219726562 -18.0432071685791 25.9851016998291 6.205348491668701 -4.226320743560791 -9.582716941833496 0.8688905239105225 1.9116290807724 10.9327974319458 6.4868855476379395 -19.216995239257812 -17.748592376708984 10.42451286315918 -0.0 0.0 -0.0 -0.0 0.0 -0.0 0.0 0.0 0.0 5.309441089630127 51.953094482421875 43.771392822265625 -28.037199020385742 -40.20979690551758 84.30149841308594 -0.021426668390631676 4.174919128417969 0.5878454446792603 -0.0 0.0 0.0 -0.0 0.0 0.0 -0.0 0.0 0.0 7.730902194976807 5.47491455078125 0.4173222780227661 -0.0 0.0 0.0 2.905566453933716 0.9650754332542419 0.10300818830728531 -0.0 0.0 0.0 10.278596878051758 0.7318810820579529 0.026273518800735474 -0.0 0.0 0.0 2.221662998199463 -0.7334509491920471 -0.20832103490829468 0.0 0.0 0.0 -63.0574951171875 -29.831501007080078 8.045286178588867 14.784883499145508 -7.594613552093506 -27.172700881958008 0.5759420394897461 -19.682540893554688 2.894101142883301 -0.0 0.0 -0.0 -0.0 0.0 -0.0 -0.0 0.0 -0.0 -7.730902194976807 5.47491455078125 -0.4173222780227661 -0.0 0.0 -0.0 -2.905566453933716 0.9650754332542419 -0.10300818830728531 -0.0 0.0 -0.0 -10.278596878051758 0.7318810820579529 -0.026273518800735474 -0.0 0.0 -0.0 -2.221662998199463 -0.7334509491920471 0.20832103490829468 -0.0 0.0 -0.0 -43.16830062866211 -12.259002685546875 6.635979652404785 -0.08205217123031616 10.021411895751953 0.4293868839740753 0.01918567530810833 3.5060455799102783 -28.910497665405273 0.0 0.0 0.0 80.15219116210938 -31.3341064453125 37.512691497802734 0.7662401795387268 56.97119140625 -2.015218734741211 1.050631046295166 1.0983327627182007 17.441102981567383
-0.9477999992668629 91.3640022277832 -2.6120000518858433 83.48701477050781 46.192691802978516 88.67799377441406 -16.27928352355957 26.49209976196289 7.071493625640869 -4.24293327331543 -9.244866371154785 1.205444097518921 1.5771914720535278 11.1430025100708 6.822420597076416 -19.314105987548828 -16.43289566040039 11.424201965332031 -0.0 0.0 -0.0 -0.0 0.0 -0.0 -0.0 0.0 -0.0 4.591186046600342 52.42679214477539 45.20479202270508 -28.005802154541016 -40.38330078125 84.61199951171875 -0.008499371819198132 2.6309711933135986 0.3701225221157074 -0.0 0.0 0.0 -0.0 0.0 0.0 -0.0 0.0 0.0 7.730902194976807 5.47491455078125 0.4173222780227661 -0.0 0.0 0.0 2.905566453933716 0.9650754332542419 0.10300818830728531 -0.0 0.0 0.0 10.278596878051758 0.7318810820579529 0.026273518800735474 -0.0 0.0 0.0 2.221662998199463 -0.7334509491920471 -0.20832103490829468 -0.0 0.0 -0.0 -65.01309967041016 -25.1564998626709 4.904934406280518 15.701780319213867 -8.389976501464844 -29.106584548950195 0.47928062081336975 -18.799022674560547 2.7463486194610596 -0.0 0.0 -0.0 -0.0 0.0 -0.0 -0.0 0.0 -0.0 -7.730902194976807 5.47491455078125 -0.4173222780227661 -0.0 0.0 -0.0 -2.905566453933716 0.9650754332542419 -0.10300818830728531 -0.0 0.0 -0.0 -10.278596878051758 0.7318810820579529 -0.026273518800735474 -0.0 0.0 -0.0 -2.221662998199463 -0.7334509491920471 0.20832103490829468 -0.0 0.0 -0.0 -43.36809539794922 -12.435291290283203 6.182319641113281 -0.10402801632881165 11.700177192687988 0.627125084400177 0.09202715009450912 3.1316845417022705 -29.5376033782959 0.0 0.0 0.0 91.27880859375 -35.82169723510742 50.35410690307617 2.1570940017700195 73.2418212890625 -3.673999547958374 1.6271440982818604 -0.8908348083496094 15.046295166015625
-1.2574000051245093 90.55870175361633 -3.9640000090003014 85.677978515625 47.16140365600586 89.90098571777344 -14.756095886230469 27.734210968017578 7.935503959655762 -4.372931480407715 -9.2567720413208 1.4663256406784058 1.3157912492752075 11.225181579589844 7.117262840270996 -19.188295364379883 -15.83779525756836 12.199294090270996 -0.0 0.0 -0.0 -0.0 0.0 -0.0 -0.0 0.0 -0.0 3.8411061763763428 52.72599411010742 46.52030563354492 -27.981094360351562 -40.5098991394043 84.84268951416016 -0.017158718779683113 3.7387006282806396 0.5257261991500854 -0.0 0.0 0.0 -0.0 0.0 0.0 -0.0 0.0 0.0 7.730902194976807 5.47491455078125 0.4173222780227661 -0.0 0.0 0.0 2.905566453933716 0.9650754332542419 0.10300818830728531 -0.0 0.0 0.0 10.278596878051758 0.7318810820579529 0.026273518800735474 -0.0 0.0 0.0 2.221662998199463 -0.7334509491920471 -0.20832103490829468 -0.0 0.0 -0.0 -66.4447021484375 -20.458602905273438 2.62473726272583 17.060895919799805 -9.712185859680176 -31.962608337402344 0.4656045436859131 -19.02346420288086 2.77831768989563 -0.0 0.0 -0.0 -0.0 0.0 -0.0 -0.0 0.0 -0.0 -7.730902194976807 5.47491455078125 -0.4173222780227661 -0.0 0.0 -0.0 -2.905566453933716 0.9650754332542419 -0.10300818830728531 -0.0 0.0 -0.0 -10.278596878051758 0.7318810820579529 -0.026273518800735474 -0.0 0.0 -0.0 -2.221662998199463 -0.7334509491920471 0.20832103490829468 -0.0 0.0 -0.0 -43.640296936035156 -13.668596267700195 4.574332237243652 -0.0779726654291153 15.436182022094727 0.9046958684921265 -0.108894482254982 2.268547296524048 -29.0669002532959 0.0 0.0 0.0 103.9949951171875 -37.26810836791992 65.09029388427734 27.37407875061035 88.0166244506836 -29.001951217651367 1.6013370752334595 -2.574885845184326 11.422694206237793
-1.2024000054225326 89.65269923210144 -4.42500002682209 87.80199432373047 47.394901275634766 90.89999389648438 -13.511907577514648 29.707599639892578 8.822525024414062 -4.6114301681518555 -9.61851978302002 1.652063012123108 1.129550576210022 11.1796875 7.370893955230713 -18.802595138549805 -15.959205627441406 12.755805969238281 -0.0 0.0 -0.0 -0.0 0.0 -0.0 -0.0 0.0 -0.0 3.080704927444458 52.858009338378906 47.69779968261719 -27.964696884155273 -40.590797424316406 84.99148559570312 -0.055344097316265106 7.497811317443848 1.0585534572601318 -0.0 0.0 0.0 -0.0 0.0 0.0 -0.0 0.0 0.0 7.730902194976807 5.47491455078125 0.4173222780227661 -0.0 0.0 0.0 2.905566453933716 0.9650754332542419 0.10300818830728531 -0.0 0.0 0.0 10.278596878051758 0.7318810820579529 0.026273518800735474 -0.0 0.0 0.0 2.221662998199463 -0.7334509491920471 -0.20832103490829468 -0.0 0.0 -0.0 -67.56769561767578 -15.796294212341309 1.0752196311950684 18.70719337463379 -11.430620193481445 -35.78739929199219 0.5371789932250977 -20.355430603027344 2.99153470993042 -0.0 0.0 -0.0 -0.0 0.0 -0.0 -0.0 0.0 -0.0 -7.730902194976807 5.47491455078125 -0.4173222780227661 -0.0 0.0 -0.0 -2.905566453933716 0.9650754332542419 -0.10300818830728531 -0.0 0.0 -0.0 -10.278596878051758 0.7318810820579529 -0.026273518800735474 -0.0 0.0 -0.0 -2.221662998199463 -0.7334509491920471 0.20832103490829468 -0.0 0.0 -0.0 -44.15239715576172 -15.946405410766602 1.775704026222229 -0.052918557077646255 21.228395462036133 1.2841408252716064 -0.5208593010902405 0.8812323212623596 -27.513399124145508 0.0 0.0 0.0 116.42098999023438 -34.561302185058594 79.39070129394531 174.51780700683594 78.01318359375 -176.11273193359375 0.9286172389984131 -3.9357054233551025 6.553133010864258
-1.06380000943318 88.12350034713745 -4.322000022511929 88.53699493408203 50.49890899658203 90.62098693847656 -10.98751449584961 31.683204650878906 9.452861785888672 -5.050518989562988 -9.947708129882812 1.8325749635696411 1.11981201171875 11.286680221557617 7.657835006713867 -18.390798568725586 -16.91820526123047 13.199395179748535 -0.0 0.0 -0.0 -0.0 0.0 -0.0 -0.0 0.0 -0.0 2.2138309478759766 52.90399932861328 49.06389617919922 -27.917404174804688 -40.83549499511719 85.4271011352539 -0.07882608473300934 7.984663486480713 1.129401445388794 -0.0 -0.0 -0.0 -0.0 -0.0 -0.0 -0.0 -0.0 -0.0 7.730902194976807 5.47491455078125 0.4173222780227661 -0.0 -0.0 -0.0 2.905566453933716 0.9650754332542419 0.10300818830728531 -0.0 -0.0 -0.0 10.278596878051758 0.7318810820579529 0.026273518800735474 -0.0 -0.0 -0.0 2.221662998199463 -0.7334509491920471 -0.20832103490829468 -0.0 0.0 -0.0 -68.1769027709961 -11.760092735290527 0.22197559475898743 20.860193252563477 -14.18120288848877 -40.64390182495117 0.7599835991859436 -23.97484016418457 3.578195095062256 -0.0 0.0 -0.0 -0.0 0.0 -0.0 -0.0 0.0 -0.0 -7.730902194976807 5.47491455078125 -0.4173222780227661 -0.0 0.0 -0.0 -2.905566453933716 0.9650754332542419 -0.10300818830728531 -0.0 0.0 -0.0 -10.278596878051758 0.7318810820579529 -0.026273518800735474 -0.0 0.0 -0.0 -2.221662998199463 -0.7334509491920471 0.20832103490829468 -0.0 0.0 -0.0 -42.37510299682617 -17.848892211914062 -0.08518336713314056 -0.0314510203897953 26.594398498535156 1.672905445098877 -1.0843974351882935 -0.595582902431488 -26.812599182128906 0.0 0.0 0.0 127.66600036621094 -29.683895111083984 93.0584945678711 176.31532287597656 66.7557144165039 -177.56015014648438 -0.31195318698883057 -4.534517288208008 1.232582926750183
-1.051500008907169 86.4641010761261 -4.143000021576881 90.26001739501953 54.693511962890625 91.1510009765625 -7.150741100311279 33.66830062866211 9.8126802444458 -5.6905317306518555 -10.24431324005127 2.0077717304229736 1.2840455770492554 11.545787811279297 7.978654384613037 -17.938501358032227 -18.712907791137695 13.544198989868164 -0.0 0.0 -0.0 -0.0 0.0 -0.0 -0.0 0.0 -0.0 1.2476344108581543 52.85538101196289 50.60889434814453 -27.82929801940918 -41.23640060424805 86.16449737548828 -0.033268123865127563 5.200013637542725 0.7326091527938843 -0.0 -0.0 -0.0 -0.0 -0.0 -0.0 -0.0 -0.0 -0.0 7.730902194976807 5.47491455078125 0.4173222780227661 -0.0 -0.0 -0.0 2.905566453933716 0.9650754332542419 0.10300818830728531 -0.0 -0.0 -0.0 10.278596878051758 0.7318810820579529 0.026273518800735474 -0.0 -0.0 -0.0 2.221662998199463 -0.7334509491920471 -0.20832103490829468 -0.0 0.0 -0.0 -68.44669342041016 -8.361995697021484 0.007205180358141661 23.061311721801758 -17.4699764251709 -46.76039505004883 1.2073625326156616 -29.87224769592285 4.617866516113281 -0.0 0.0 -0.0 -0.0 0.0 -0.0 -0.0 0.0 -0.0 -7.730902194976807 5.47491455078125 -0.4173222780227661 -0.0 0.0 -0.0 -2.905566453933716 0.9650754332542419 -0.10300818830728531 -0.0 0.0 -0.0 -10.278596878051758 0.7318810820579529 -0.026273518800735474 -0.0 0.0 -0.0 -2.221662998199463 -0.7334509491920471 0.20832103490829468 -0.0 0.0 -0.0 -38.17319869995117 -19.393516540527344 -0.9760907888412476 -0.0043601179495453835 31.53390121459961 2.074725866317749 -1.8626917600631714 -2.1287171840667725 -26.965394973754883 0.0 0.0 0.0 136.56199645996094 -21.341800689697266 104.11399841308594 176.80484008789062 57.90949630737305 -177.28271484375 -1.9211552143096924 -4.335494518280029 -4.528689861297607
